<svg width="80" height="81" viewBox="0 0 80 81" fill="none" xmlns="http://www.w3.org/2000/svg">
<path d="M75.2257 1.23792C66.4193 2.14008 58.7508 5.00574 52.987 9.51653C51.2059 10.8963 47.6438 14.7172 46.3575 16.6011C41.7316 23.4469 39.6042 31.4336 39.6042 41.888V46.4519L41.2863 42.7371C43.2406 38.4651 44.428 36.3424 46.8769 32.7868C50.637 27.3739 56.945 21.5099 62.7335 18.087C63.7972 17.4502 63.8714 17.4237 63.2282 17.9809C55.0649 24.8001 46.7532 37.1384 43.4385 47.3805C42.4737 50.3523 41.5832 54.1467 41.5832 55.2081C41.5832 56.6144 41.1626 55.7653 40.8905 53.8283C40.4947 51.228 38.9363 46.213 37.6747 43.5066C35.3494 38.5713 31.6388 33.2645 26.6419 27.7719C23.0798 23.8714 19.765 20.7935 16.7471 18.5912C14.8423 17.1849 14.4218 16.7072 15.8071 17.5033C21.645 20.8731 24.094 22.4916 26.4935 24.5348C29.4125 27.0024 32.6531 30.1865 34.3599 32.2296C35.3741 33.4767 36.3142 34.5381 36.3884 34.5912C36.611 34.6708 35.8194 29.9212 35.201 27.3208C31.713 12.9659 21.0513 5.21802 3.29004 4.23626L0 4.05052L0.17316 5.21802C2.25108 20.7669 8.41064 31.3275 17.9097 35.626C20.2597 36.6873 24.4898 37.9079 27.483 38.3855C28.6456 38.5713 29.7341 38.8366 29.9072 38.9693C30.4515 39.4203 32.851 44.223 33.791 46.7172C36.5121 53.9875 37.8726 62.8764 37.4521 70.7835L37.3036 73.9145H35.671C33.6425 73.9145 28.2746 74.5779 25.6277 75.1351C23.1293 75.6658 19.0476 77.0986 17.316 78.0273C15.8813 78.7968 13.6302 80.4684 13.6302 80.7603C13.6302 80.8664 25.7267 80.946 40.4947 80.946H67.3593L66.3946 80.0704C65.034 78.7703 61.3977 76.9659 58.4045 76.0903C54.3476 74.8698 48.4848 73.9411 44.8732 73.9145C44.0322 73.9145 43.29 73.8349 43.2406 73.7023C43.1169 73.4635 43.4385 68.4485 43.8095 64.6276C43.9579 63.0887 44.4032 60.1169 44.799 57.9941C45.5164 54.0936 47.4706 47.0887 48.0643 46.2926C48.2375 46.0538 49.6475 45.4701 51.2059 44.9925C64.5145 40.9858 71.8862 34.0339 76.2894 21.3772C77.9716 16.548 79.3816 9.25118 79.8268 3.2545L80 0.946045L78.6642 0.97258C77.9221 0.999115 76.3884 1.10525 75.2257 1.23792Z" fill="white"/>
</svg>
