<svg width="50" height="51" viewBox="0 0 50 51" fill="none" xmlns="http://www.w3.org/2000/svg">
<path d="M34.1143 7.21655C36.5295 7.22377 38.8439 8.18643 40.5517 9.89431C42.2596 11.6022 43.2223 13.9165 43.2295 16.3318V34.5603C43.2223 36.9756 42.2596 39.2899 40.5517 40.9978C38.8439 42.7057 36.5295 43.6683 34.1143 43.6755H15.8857C13.4705 43.6683 11.1561 42.7057 9.44827 40.9978C7.74039 39.2899 6.77772 36.9756 6.77051 34.5603V16.3318C6.77772 13.9165 7.74039 11.6022 9.44827 9.89431C11.1561 8.18643 13.4705 7.22377 15.8857 7.21655H34.1143ZM34.1143 3.57104H15.8857C8.86719 3.57104 3.125 9.31323 3.125 16.3318V34.5603C3.125 41.5789 8.86719 47.321 15.8857 47.321H34.1143C41.1328 47.321 46.875 41.5789 46.875 34.5603V16.3318C46.875 9.31323 41.1328 3.57104 34.1143 3.57104Z" fill="white"/>
<path d="M36.8486 16.3318C36.3078 16.3318 35.7792 16.1714 35.3295 15.871C34.8798 15.5705 34.5294 15.1435 34.3224 14.6438C34.1154 14.1442 34.0613 13.5944 34.1668 13.064C34.2723 12.5335 34.5327 12.0463 34.9151 11.6639C35.2976 11.2815 35.7848 11.0211 36.3152 10.9156C36.8456 10.8101 37.3954 10.8642 37.895 11.0712C38.3947 11.2781 38.8217 11.6286 39.1222 12.0783C39.4226 12.5279 39.583 13.0566 39.583 13.5974C39.5838 13.9567 39.5136 14.3126 39.3764 14.6447C39.2393 14.9768 39.0379 15.2786 38.7839 15.5326C38.5298 15.7867 38.228 15.9881 37.8959 16.1252C37.5639 16.2624 37.2079 16.3326 36.8486 16.3318ZM25 18.1541C26.4422 18.1541 27.8521 18.5817 29.0512 19.383C30.2504 20.1842 31.185 21.3231 31.7369 22.6555C32.2888 23.988 32.4332 25.4541 32.1519 26.8686C31.8705 28.2831 31.176 29.5825 30.1562 30.6023C29.1364 31.6221 27.8371 32.3166 26.4226 32.5979C25.0081 32.8793 23.5419 32.7349 22.2095 32.183C20.877 31.6311 19.7382 30.6964 18.9369 29.4973C18.1357 28.2981 17.708 26.8883 17.708 25.446C17.7101 23.5127 18.479 21.6592 19.8461 20.2921C21.2131 18.925 23.0667 18.1561 25 18.1541ZM25 14.5085C22.8368 14.5085 20.7221 15.15 18.9235 16.3518C17.1248 17.5537 15.7229 19.2619 14.8951 21.2604C14.0672 23.259 13.8506 25.4582 14.2727 27.5798C14.6947 29.7015 15.7364 31.6504 17.266 33.18C18.7957 34.7097 20.7445 35.7514 22.8662 36.1734C24.9879 36.5954 27.187 36.3788 29.1856 35.551C31.1842 34.7231 32.8924 33.3213 34.0942 31.5226C35.296 29.7239 35.9375 27.6093 35.9375 25.446C35.9375 22.5452 34.7852 19.7632 32.734 17.7121C30.6828 15.6609 27.9008 14.5085 25 14.5085Z" fill="white"/>
</svg>
