<svg width="50" height="41" viewBox="0 0 50 41" fill="none" xmlns="http://www.w3.org/2000/svg">
<path d="M50 5.18563C48.1244 6.00058 46.14 6.53748 44.1094 6.77938C46.2434 5.52977 47.8482 3.54456 48.6229 1.19606C46.6053 2.37584 44.4016 3.20363 42.1063 3.64397C41.1397 2.63098 39.9772 1.82513 38.6895 1.27538C37.4018 0.72563 36.0158 0.443475 34.6156 0.446063C28.9469 0.446063 24.3594 4.96688 24.3594 10.5398C24.3554 11.3149 24.4442 12.0878 24.624 12.8419C20.559 12.6513 16.5787 11.6143 12.9375 9.79734C9.29629 7.98034 6.07446 5.4233 3.47812 2.28981C2.56727 3.82534 2.08555 5.57734 2.08333 7.36271C2.08333 10.8627 3.90937 13.9564 6.66667 15.7689C5.03305 15.7302 3.43291 15.2978 2.00208 14.5085V14.6335C2.00208 19.5293 5.54375 23.6022 10.2312 24.5293C9.34977 24.7643 8.44142 24.8834 7.52917 24.8835C6.88185 24.8846 6.23601 24.8218 5.60104 24.696C6.90417 28.7064 10.6969 31.623 15.1896 31.7064C11.5389 34.5198 7.05689 36.0405 2.44792 36.0293C1.62981 36.0281 0.812464 35.9794 0 35.8835C4.68873 38.8774 10.139 40.4611 15.7021 40.4459C34.5938 40.4459 44.9146 25.0606 44.9146 11.7169C44.9146 11.2794 44.9031 10.8419 44.8823 10.4148C46.8855 8.98985 48.6185 7.21907 50 5.18563Z" fill="white"/>
</svg>
